<mxfile host="app.diagrams.net" modified="2023-04-19T06:54:45.068Z" agent="Mozilla/5.0 (Windows NT 10.0; Win64; x64) AppleWebKit/537.36 (KHTML, like Gecko) Chrome/112.0.0.0 Safari/537.36 Edg/112.0.1722.48" etag="nMyvC65y4dM-bhc7lqb2" version="21.1.7" type="device" pages="2">
  <diagram name="Page-1" id="SCsE3PT4WB_GUo86Df_2">
    <mxGraphModel dx="2514" dy="899" grid="1" gridSize="10" guides="1" tooltips="1" connect="1" arrows="1" fold="1" page="1" pageScale="1" pageWidth="827" pageHeight="1169" math="0" shadow="0">
      <root>
        <mxCell id="0" />
        <mxCell id="1" parent="0" />
        <mxCell id="yfvuUzmtMURHoeyQ7o1Z-84" style="edgeStyle=orthogonalEdgeStyle;rounded=0;orthogonalLoop=1;jettySize=auto;html=1;entryX=0.297;entryY=0.018;entryDx=0;entryDy=0;entryPerimeter=0;" parent="1" source="rEXQPaYoR8sOyzqgYeVf-1" target="rEXQPaYoR8sOyzqgYeVf-20" edge="1">
          <mxGeometry relative="1" as="geometry">
            <Array as="points">
              <mxPoint x="-688" y="620" />
              <mxPoint x="-590" y="620" />
            </Array>
          </mxGeometry>
        </mxCell>
        <mxCell id="rEXQPaYoR8sOyzqgYeVf-1" value="Cosmos&lt;br&gt;(preprocessed)" style="aspect=fixed;html=1;points=[];align=center;image;fontSize=12;image=img/lib/azure2/databases/Azure_Cosmos_DB.svg;" parent="1" vertex="1">
          <mxGeometry x="-720" y="511" width="64" height="64" as="geometry" />
        </mxCell>
        <mxCell id="yfvuUzmtMURHoeyQ7o1Z-73" value="" style="edgeStyle=orthogonalEdgeStyle;rounded=0;orthogonalLoop=1;jettySize=auto;html=1;" parent="1" source="rEXQPaYoR8sOyzqgYeVf-2" target="yfvuUzmtMURHoeyQ7o1Z-50" edge="1">
          <mxGeometry relative="1" as="geometry" />
        </mxCell>
        <mxCell id="rEXQPaYoR8sOyzqgYeVf-2" value="VdsProxyUploads" style="verticalLabelPosition=bottom;html=1;verticalAlign=top;align=center;strokeColor=none;fillColor=#00BEF2;shape=mxgraph.azure.storage_blob;" parent="1" vertex="1">
          <mxGeometry x="-678" y="300" width="60" height="55" as="geometry" />
        </mxCell>
        <mxCell id="rEXQPaYoR8sOyzqgYeVf-66" style="edgeStyle=orthogonalEdgeStyle;rounded=0;orthogonalLoop=1;jettySize=auto;html=1;startArrow=classic;startFill=1;" parent="1" source="rEXQPaYoR8sOyzqgYeVf-3" target="rEXQPaYoR8sOyzqgYeVf-25" edge="1">
          <mxGeometry relative="1" as="geometry">
            <Array as="points">
              <mxPoint x="-13" y="1100" />
              <mxPoint x="-13" y="220" />
            </Array>
          </mxGeometry>
        </mxCell>
        <mxCell id="yfvuUzmtMURHoeyQ7o1Z-6" value="Download Definitions" style="edgeLabel;html=1;align=center;verticalAlign=middle;resizable=0;points=[];" parent="rEXQPaYoR8sOyzqgYeVf-66" vertex="1" connectable="0">
          <mxGeometry x="0.8516" y="-1" relative="1" as="geometry">
            <mxPoint as="offset" />
          </mxGeometry>
        </mxCell>
        <mxCell id="yfvuUzmtMURHoeyQ7o1Z-27" value="Download Definitions" style="edgeLabel;html=1;align=center;verticalAlign=middle;resizable=0;points=[];" parent="rEXQPaYoR8sOyzqgYeVf-66" vertex="1" connectable="0">
          <mxGeometry x="-0.8486" y="-2" relative="1" as="geometry">
            <mxPoint x="-40" y="-2" as="offset" />
          </mxGeometry>
        </mxCell>
        <mxCell id="yfvuUzmtMURHoeyQ7o1Z-1" style="edgeStyle=orthogonalEdgeStyle;rounded=0;orthogonalLoop=1;jettySize=auto;html=1;startArrow=classic;startFill=1;" parent="1" source="rEXQPaYoR8sOyzqgYeVf-3" target="rEXQPaYoR8sOyzqgYeVf-20" edge="1">
          <mxGeometry relative="1" as="geometry">
            <Array as="points">
              <mxPoint x="-813" y="1080" />
              <mxPoint x="-813" y="692" />
            </Array>
          </mxGeometry>
        </mxCell>
        <mxCell id="yfvuUzmtMURHoeyQ7o1Z-41" style="edgeStyle=orthogonalEdgeStyle;rounded=0;orthogonalLoop=1;jettySize=auto;html=1;entryX=1.016;entryY=0.75;entryDx=0;entryDy=0;entryPerimeter=0;startArrow=classic;startFill=1;" parent="1" source="rEXQPaYoR8sOyzqgYeVf-3" target="rEXQPaYoR8sOyzqgYeVf-21" edge="1">
          <mxGeometry relative="1" as="geometry">
            <Array as="points">
              <mxPoint x="-203" y="1060" />
              <mxPoint x="-203" y="839" />
            </Array>
          </mxGeometry>
        </mxCell>
        <mxCell id="yfvuUzmtMURHoeyQ7o1Z-42" value="Metingen" style="edgeLabel;html=1;align=center;verticalAlign=middle;resizable=0;points=[];" parent="yfvuUzmtMURHoeyQ7o1Z-41" vertex="1" connectable="0">
          <mxGeometry x="-0.4503" relative="1" as="geometry">
            <mxPoint x="-66" as="offset" />
          </mxGeometry>
        </mxCell>
        <mxCell id="yfvuUzmtMURHoeyQ7o1Z-64" style="edgeStyle=orthogonalEdgeStyle;rounded=0;orthogonalLoop=1;jettySize=auto;html=1;startArrow=classic;startFill=1;jumpStyle=gap;" parent="1" source="rEXQPaYoR8sOyzqgYeVf-3" target="rEXQPaYoR8sOyzqgYeVf-48" edge="1">
          <mxGeometry relative="1" as="geometry">
            <Array as="points">
              <mxPoint x="-513" y="1060" />
              <mxPoint x="-513" y="840" />
            </Array>
          </mxGeometry>
        </mxCell>
        <mxCell id="yfvuUzmtMURHoeyQ7o1Z-69" value="Data" style="edgeLabel;html=1;align=center;verticalAlign=middle;resizable=0;points=[];" parent="yfvuUzmtMURHoeyQ7o1Z-64" vertex="1" connectable="0">
          <mxGeometry x="-0.4435" y="-4" relative="1" as="geometry">
            <mxPoint x="-4" y="-140" as="offset" />
          </mxGeometry>
        </mxCell>
        <mxCell id="rEXQPaYoR8sOyzqgYeVf-3" value="VDS config database" style="aspect=fixed;html=1;points=[];align=center;image;fontSize=12;image=img/lib/azure2/databases/SQL_Database.svg;" parent="1" vertex="1">
          <mxGeometry x="-447" y="1050" width="45" height="60" as="geometry" />
        </mxCell>
        <mxCell id="rEXQPaYoR8sOyzqgYeVf-33" value="" style="edgeStyle=orthogonalEdgeStyle;rounded=0;orthogonalLoop=1;jettySize=auto;html=1;startArrow=classic;startFill=1;" parent="1" source="rEXQPaYoR8sOyzqgYeVf-5" target="rEXQPaYoR8sOyzqgYeVf-22" edge="1">
          <mxGeometry relative="1" as="geometry">
            <Array as="points">
              <mxPoint x="-333" y="692" />
              <mxPoint x="-333" y="692" />
            </Array>
          </mxGeometry>
        </mxCell>
        <mxCell id="rEXQPaYoR8sOyzqgYeVf-5" value="Masterdata database" style="aspect=fixed;html=1;points=[];align=center;image;fontSize=12;image=img/lib/azure2/databases/SQL_Database.svg;" parent="1" vertex="1">
          <mxGeometry x="-295" y="665.5" width="48" height="64" as="geometry" />
        </mxCell>
        <mxCell id="rEXQPaYoR8sOyzqgYeVf-55" value="" style="edgeStyle=orthogonalEdgeStyle;rounded=0;orthogonalLoop=1;jettySize=auto;html=1;" parent="1" source="rEXQPaYoR8sOyzqgYeVf-3" target="rEXQPaYoR8sOyzqgYeVf-53" edge="1">
          <mxGeometry relative="1" as="geometry">
            <mxPoint x="-874.0900000000001" y="537" as="sourcePoint" />
            <Array as="points">
              <mxPoint x="-33" y="1080" />
              <mxPoint x="-33" y="640" />
            </Array>
          </mxGeometry>
        </mxCell>
        <mxCell id="yfvuUzmtMURHoeyQ7o1Z-15" value="Rapport" style="edgeLabel;html=1;align=center;verticalAlign=middle;resizable=0;points=[];" parent="rEXQPaYoR8sOyzqgYeVf-55" vertex="1" connectable="0">
          <mxGeometry x="0.24" y="-2" relative="1" as="geometry">
            <mxPoint x="-12" y="-258" as="offset" />
          </mxGeometry>
        </mxCell>
        <mxCell id="yfvuUzmtMURHoeyQ7o1Z-28" value="Rapport" style="edgeLabel;html=1;align=center;verticalAlign=middle;resizable=0;points=[];" parent="rEXQPaYoR8sOyzqgYeVf-55" vertex="1" connectable="0">
          <mxGeometry x="-0.7145" y="2" relative="1" as="geometry">
            <mxPoint x="-63" y="2" as="offset" />
          </mxGeometry>
        </mxCell>
        <mxCell id="yfvuUzmtMURHoeyQ7o1Z-66" style="edgeStyle=orthogonalEdgeStyle;rounded=0;orthogonalLoop=1;jettySize=auto;html=1;entryX=0.016;entryY=0.788;entryDx=0;entryDy=0;entryPerimeter=0;startArrow=classic;startFill=1;" parent="1" source="rEXQPaYoR8sOyzqgYeVf-8" target="rEXQPaYoR8sOyzqgYeVf-24" edge="1">
          <mxGeometry relative="1" as="geometry">
            <Array as="points">
              <mxPoint x="-650" y="949" />
              <mxPoint x="-650" y="841" />
            </Array>
          </mxGeometry>
        </mxCell>
        <mxCell id="rEXQPaYoR8sOyzqgYeVf-8" value="House layouts blobstorage&lt;br&gt;" style="verticalLabelPosition=bottom;html=1;verticalAlign=top;align=center;strokeColor=none;fillColor=#00BEF2;shape=mxgraph.azure.storage_blob;" parent="1" vertex="1">
          <mxGeometry x="-761" y="921.48" width="60" height="55" as="geometry" />
        </mxCell>
        <mxCell id="yfvuUzmtMURHoeyQ7o1Z-3" style="edgeStyle=orthogonalEdgeStyle;rounded=0;orthogonalLoop=1;jettySize=auto;html=1;startArrow=classic;startFill=1;entryX=-0.016;entryY=0.385;entryDx=0;entryDy=0;entryPerimeter=0;" parent="1" source="rEXQPaYoR8sOyzqgYeVf-9" target="rEXQPaYoR8sOyzqgYeVf-24" edge="1">
          <mxGeometry relative="1" as="geometry">
            <mxPoint x="-623" y="750" as="targetPoint" />
            <Array as="points">
              <mxPoint x="-683" y="820" />
              <mxPoint x="-683" y="820" />
            </Array>
          </mxGeometry>
        </mxCell>
        <mxCell id="rEXQPaYoR8sOyzqgYeVf-9" value="Meggsius Connect database" style="aspect=fixed;html=1;points=[];align=center;image;fontSize=12;image=img/lib/azure2/databases/SQL_Database.svg;" parent="1" vertex="1">
          <mxGeometry x="-755" y="800" width="48" height="64" as="geometry" />
        </mxCell>
        <mxCell id="yfvuUzmtMURHoeyQ7o1Z-11" style="edgeStyle=orthogonalEdgeStyle;rounded=0;orthogonalLoop=1;jettySize=auto;html=1;" parent="1" source="rEXQPaYoR8sOyzqgYeVf-17" target="yfvuUzmtMURHoeyQ7o1Z-10" edge="1">
          <mxGeometry relative="1" as="geometry" />
        </mxCell>
        <mxCell id="rEXQPaYoR8sOyzqgYeVf-17" value="Sendgrid mailserver" style="verticalLabelPosition=bottom;sketch=0;aspect=fixed;html=1;verticalAlign=top;strokeColor=none;align=center;outlineConnect=0;shape=mxgraph.citrix.smtp_server;" parent="1" vertex="1">
          <mxGeometry x="-142.81999999999996" y="797" width="57.82" height="70" as="geometry" />
        </mxCell>
        <mxCell id="rEXQPaYoR8sOyzqgYeVf-54" value="" style="edgeStyle=orthogonalEdgeStyle;rounded=0;orthogonalLoop=1;jettySize=auto;html=1;jumpStyle=none;" parent="1" source="rEXQPaYoR8sOyzqgYeVf-20" target="rEXQPaYoR8sOyzqgYeVf-53" edge="1">
          <mxGeometry relative="1" as="geometry">
            <Array as="points">
              <mxPoint x="-553" y="620" />
            </Array>
          </mxGeometry>
        </mxCell>
        <mxCell id="yfvuUzmtMURHoeyQ7o1Z-49" value="" style="edgeStyle=orthogonalEdgeStyle;rounded=0;orthogonalLoop=1;jettySize=auto;html=1;startArrow=classic;startFill=1;" parent="1" source="rEXQPaYoR8sOyzqgYeVf-20" target="rEXQPaYoR8sOyzqgYeVf-24" edge="1">
          <mxGeometry relative="1" as="geometry" />
        </mxCell>
        <mxCell id="yfvuUzmtMURHoeyQ7o1Z-79" style="edgeStyle=orthogonalEdgeStyle;rounded=0;orthogonalLoop=1;jettySize=auto;html=1;" parent="1" source="rEXQPaYoR8sOyzqgYeVf-20" target="yfvuUzmtMURHoeyQ7o1Z-17" edge="1">
          <mxGeometry relative="1" as="geometry">
            <mxPoint x="-453" y="380" as="targetPoint" />
            <Array as="points">
              <mxPoint x="-573" y="600" />
              <mxPoint x="-453" y="600" />
            </Array>
          </mxGeometry>
        </mxCell>
        <mxCell id="yfvuUzmtMURHoeyQ7o1Z-80" value="Multiple Records" style="edgeLabel;html=1;align=center;verticalAlign=middle;resizable=0;points=[];" parent="yfvuUzmtMURHoeyQ7o1Z-79" vertex="1" connectable="0">
          <mxGeometry x="-0.4847" y="-4" relative="1" as="geometry">
            <mxPoint x="24" y="-4" as="offset" />
          </mxGeometry>
        </mxCell>
        <mxCell id="rEXQPaYoR8sOyzqgYeVf-20" value="SPF API" style="aspect=fixed;html=1;points=[];align=center;image;fontSize=12;image=img/lib/azure2/general/Code.svg;" parent="1" vertex="1">
          <mxGeometry x="-609" y="665.5" width="64" height="52" as="geometry" />
        </mxCell>
        <mxCell id="rEXQPaYoR8sOyzqgYeVf-42" value="" style="edgeStyle=orthogonalEdgeStyle;rounded=0;orthogonalLoop=1;jettySize=auto;html=1;startArrow=classic;startFill=1;" parent="1" source="rEXQPaYoR8sOyzqgYeVf-21" target="rEXQPaYoR8sOyzqgYeVf-34" edge="1">
          <mxGeometry relative="1" as="geometry" />
        </mxCell>
        <mxCell id="yfvuUzmtMURHoeyQ7o1Z-57" style="edgeStyle=orthogonalEdgeStyle;rounded=0;orthogonalLoop=1;jettySize=auto;html=1;" parent="1" source="rEXQPaYoR8sOyzqgYeVf-21" target="rEXQPaYoR8sOyzqgYeVf-11" edge="1">
          <mxGeometry relative="1" as="geometry">
            <Array as="points">
              <mxPoint x="-333" y="840" />
              <mxPoint x="-333" y="940" />
            </Array>
          </mxGeometry>
        </mxCell>
        <mxCell id="rEXQPaYoR8sOyzqgYeVf-21" value="Meggsius App API" style="aspect=fixed;html=1;points=[];align=center;image;fontSize=12;image=img/lib/azure2/general/Code.svg;" parent="1" vertex="1">
          <mxGeometry x="-303" y="800" width="64" height="52" as="geometry" />
        </mxCell>
        <mxCell id="rEXQPaYoR8sOyzqgYeVf-44" style="edgeStyle=orthogonalEdgeStyle;rounded=0;orthogonalLoop=1;jettySize=auto;html=1;" parent="1" source="rEXQPaYoR8sOyzqgYeVf-22" target="rEXQPaYoR8sOyzqgYeVf-21" edge="1">
          <mxGeometry relative="1" as="geometry">
            <Array as="points">
              <mxPoint x="-413" y="780" />
              <mxPoint x="-271" y="780" />
            </Array>
          </mxGeometry>
        </mxCell>
        <mxCell id="yfvuUzmtMURHoeyQ7o1Z-24" value="Account Topology" style="edgeLabel;html=1;align=center;verticalAlign=middle;resizable=0;points=[];" parent="rEXQPaYoR8sOyzqgYeVf-44" vertex="1" connectable="0">
          <mxGeometry x="-0.8176" y="2" relative="1" as="geometry">
            <mxPoint x="68" y="43" as="offset" />
          </mxGeometry>
        </mxCell>
        <mxCell id="yfvuUzmtMURHoeyQ7o1Z-47" style="edgeStyle=orthogonalEdgeStyle;rounded=0;orthogonalLoop=1;jettySize=auto;html=1;" parent="1" source="rEXQPaYoR8sOyzqgYeVf-22" target="rEXQPaYoR8sOyzqgYeVf-53" edge="1">
          <mxGeometry relative="1" as="geometry">
            <Array as="points">
              <mxPoint x="-413" y="640" />
            </Array>
          </mxGeometry>
        </mxCell>
        <mxCell id="yfvuUzmtMURHoeyQ7o1Z-59" style="edgeStyle=orthogonalEdgeStyle;rounded=0;orthogonalLoop=1;jettySize=auto;html=1;" parent="1" source="rEXQPaYoR8sOyzqgYeVf-22" target="rEXQPaYoR8sOyzqgYeVf-48" edge="1">
          <mxGeometry relative="1" as="geometry">
            <Array as="points">
              <mxPoint x="-433" y="750" />
              <mxPoint x="-433" y="750" />
            </Array>
          </mxGeometry>
        </mxCell>
        <mxCell id="yfvuUzmtMURHoeyQ7o1Z-60" value="Account Topology" style="edgeLabel;html=1;align=center;verticalAlign=middle;resizable=0;points=[];" parent="yfvuUzmtMURHoeyQ7o1Z-59" vertex="1" connectable="0">
          <mxGeometry x="-0.2456" y="2" relative="1" as="geometry">
            <mxPoint x="-42" y="22" as="offset" />
          </mxGeometry>
        </mxCell>
        <mxCell id="yfvuUzmtMURHoeyQ7o1Z-62" value="" style="edgeStyle=orthogonalEdgeStyle;rounded=0;orthogonalLoop=1;jettySize=auto;html=1;" parent="1" source="rEXQPaYoR8sOyzqgYeVf-22" target="rEXQPaYoR8sOyzqgYeVf-20" edge="1">
          <mxGeometry relative="1" as="geometry" />
        </mxCell>
        <mxCell id="yfvuUzmtMURHoeyQ7o1Z-63" value="Topology" style="edgeLabel;html=1;align=center;verticalAlign=middle;resizable=0;points=[];" parent="yfvuUzmtMURHoeyQ7o1Z-62" vertex="1" connectable="0">
          <mxGeometry x="0.2768" y="2" relative="1" as="geometry">
            <mxPoint x="20" y="-2" as="offset" />
          </mxGeometry>
        </mxCell>
        <mxCell id="rEXQPaYoR8sOyzqgYeVf-22" value="Masterdata API" style="aspect=fixed;html=1;points=[];align=center;image;fontSize=12;image=img/lib/azure2/general/Code.svg;" parent="1" vertex="1">
          <mxGeometry x="-456.5" y="665.5" width="64" height="52" as="geometry" />
        </mxCell>
        <mxCell id="rEXQPaYoR8sOyzqgYeVf-37" value="" style="edgeStyle=orthogonalEdgeStyle;rounded=0;orthogonalLoop=1;jettySize=auto;html=1;startArrow=classic;startFill=1;" parent="1" source="rEXQPaYoR8sOyzqgYeVf-24" target="rEXQPaYoR8sOyzqgYeVf-35" edge="1">
          <mxGeometry relative="1" as="geometry" />
        </mxCell>
        <mxCell id="yfvuUzmtMURHoeyQ7o1Z-43" value="" style="edgeStyle=orthogonalEdgeStyle;rounded=0;orthogonalLoop=1;jettySize=auto;html=1;startArrow=classic;startFill=1;" parent="1" source="rEXQPaYoR8sOyzqgYeVf-24" target="rEXQPaYoR8sOyzqgYeVf-48" edge="1">
          <mxGeometry relative="1" as="geometry">
            <Array as="points">
              <mxPoint x="-493" y="820" />
              <mxPoint x="-493" y="820" />
            </Array>
          </mxGeometry>
        </mxCell>
        <mxCell id="yfvuUzmtMURHoeyQ7o1Z-44" value="Edit Users" style="edgeLabel;html=1;align=center;verticalAlign=middle;resizable=0;points=[];" parent="yfvuUzmtMURHoeyQ7o1Z-43" vertex="1" connectable="0">
          <mxGeometry x="-0.2174" relative="1" as="geometry">
            <mxPoint x="10" as="offset" />
          </mxGeometry>
        </mxCell>
        <mxCell id="rEXQPaYoR8sOyzqgYeVf-24" value="DFE platform API" style="aspect=fixed;html=1;points=[];align=center;image;fontSize=12;image=img/lib/azure2/general/Code.svg;" parent="1" vertex="1">
          <mxGeometry x="-609" y="800" width="64" height="52" as="geometry" />
        </mxCell>
        <mxCell id="rEXQPaYoR8sOyzqgYeVf-68" style="edgeStyle=orthogonalEdgeStyle;rounded=0;orthogonalLoop=1;jettySize=auto;html=1;" parent="1" source="rEXQPaYoR8sOyzqgYeVf-25" target="rEXQPaYoR8sOyzqgYeVf-26" edge="1">
          <mxGeometry relative="1" as="geometry">
            <Array as="points">
              <mxPoint x="-500" y="220" />
              <mxPoint x="-500" y="220" />
            </Array>
          </mxGeometry>
        </mxCell>
        <mxCell id="rEXQPaYoR8sOyzqgYeVf-25" value="VDS proxy&lt;br&gt;configuration API" style="aspect=fixed;html=1;points=[];align=center;image;fontSize=12;image=img/lib/azure2/general/Code.svg;" parent="1" vertex="1">
          <mxGeometry x="-468" y="196" width="64" height="52" as="geometry" />
        </mxCell>
        <mxCell id="yfvuUzmtMURHoeyQ7o1Z-72" style="edgeStyle=orthogonalEdgeStyle;rounded=0;orthogonalLoop=1;jettySize=auto;html=1;entryX=0.5;entryY=0;entryDx=0;entryDy=0;entryPerimeter=0;" parent="1" source="rEXQPaYoR8sOyzqgYeVf-26" target="rEXQPaYoR8sOyzqgYeVf-2" edge="1">
          <mxGeometry relative="1" as="geometry" />
        </mxCell>
        <mxCell id="rEXQPaYoR8sOyzqgYeVf-26" value="VDS Proxy" style="aspect=fixed;html=1;points=[];align=center;image;fontSize=12;image=img/lib/azure2/general/Server_Farm.svg;" parent="1" vertex="1">
          <mxGeometry x="-680" y="190" width="64" height="64" as="geometry" />
        </mxCell>
        <mxCell id="rEXQPaYoR8sOyzqgYeVf-34" value="Meggsius Note" style="aspect=fixed;html=1;points=[];align=center;image;fontSize=12;image=img/lib/azure2/general/Mobile.svg;" parent="1" vertex="1">
          <mxGeometry x="-291" y="921.48" width="40" height="67" as="geometry" />
        </mxCell>
        <mxCell id="rEXQPaYoR8sOyzqgYeVf-35" value="Meggsius Connect" style="aspect=fixed;html=1;points=[];align=center;image;fontSize=12;image=img/lib/azure2/compute/Virtual_Machines_Classic.svg;" parent="1" vertex="1">
          <mxGeometry x="-607.5" y="919.26" width="62.5" height="57.97" as="geometry" />
        </mxCell>
        <mxCell id="rEXQPaYoR8sOyzqgYeVf-49" style="edgeStyle=orthogonalEdgeStyle;rounded=0;orthogonalLoop=1;jettySize=auto;html=1;" parent="1" source="rEXQPaYoR8sOyzqgYeVf-48" target="rEXQPaYoR8sOyzqgYeVf-11" edge="1">
          <mxGeometry relative="1" as="geometry">
            <Array as="points">
              <mxPoint x="-415" y="800" />
              <mxPoint x="-415" y="800" />
            </Array>
          </mxGeometry>
        </mxCell>
        <mxCell id="yfvuUzmtMURHoeyQ7o1Z-25" value="Permissions" style="edgeLabel;html=1;align=center;verticalAlign=middle;resizable=0;points=[];" parent="rEXQPaYoR8sOyzqgYeVf-49" vertex="1" connectable="0">
          <mxGeometry x="0.146" relative="1" as="geometry">
            <mxPoint y="8" as="offset" />
          </mxGeometry>
        </mxCell>
        <mxCell id="rEXQPaYoR8sOyzqgYeVf-48" value="Meggsius access&lt;br&gt;management API" style="aspect=fixed;html=1;points=[];align=center;image;fontSize=12;image=img/lib/azure2/general/Code.svg;" parent="1" vertex="1">
          <mxGeometry x="-454" y="800" width="64" height="52" as="geometry" />
        </mxCell>
        <mxCell id="yfvuUzmtMURHoeyQ7o1Z-12" style="edgeStyle=orthogonalEdgeStyle;rounded=0;orthogonalLoop=1;jettySize=auto;html=1;" parent="1" source="rEXQPaYoR8sOyzqgYeVf-53" target="rEXQPaYoR8sOyzqgYeVf-17" edge="1">
          <mxGeometry relative="1" as="geometry" />
        </mxCell>
        <mxCell id="yfvuUzmtMURHoeyQ7o1Z-16" value="Data" style="edgeLabel;html=1;align=center;verticalAlign=middle;resizable=0;points=[];" parent="yfvuUzmtMURHoeyQ7o1Z-12" vertex="1" connectable="0">
          <mxGeometry x="0.3222" y="-1" relative="1" as="geometry">
            <mxPoint x="1" y="-10" as="offset" />
          </mxGeometry>
        </mxCell>
        <mxCell id="rEXQPaYoR8sOyzqgYeVf-53" value="Time Triggered Reports" style="aspect=fixed;html=1;points=[];align=center;image;fontSize=12;image=img/lib/azure2/general/Scheduler.svg;" parent="1" vertex="1">
          <mxGeometry x="-147.91" y="610" width="68" height="68" as="geometry" />
        </mxCell>
        <mxCell id="yfvuUzmtMURHoeyQ7o1Z-10" value="Customer" style="aspect=fixed;html=1;points=[];align=center;image;fontSize=12;image=img/lib/azure2/identity/Users.svg;" parent="1" vertex="1">
          <mxGeometry x="-139.72999999999996" y="919.26" width="51.63" height="56.48" as="geometry" />
        </mxCell>
        <mxCell id="yfvuUzmtMURHoeyQ7o1Z-54" style="edgeStyle=orthogonalEdgeStyle;rounded=0;orthogonalLoop=1;jettySize=auto;html=1;startArrow=classic;startFill=1;jumpStyle=gap;endArrow=none;endFill=0;" parent="1" target="rEXQPaYoR8sOyzqgYeVf-22" edge="1">
          <mxGeometry relative="1" as="geometry">
            <mxPoint x="-433" y="360" as="sourcePoint" />
            <Array as="points">
              <mxPoint x="-433" y="620" />
              <mxPoint x="-433" y="620" />
            </Array>
          </mxGeometry>
        </mxCell>
        <mxCell id="yfvuUzmtMURHoeyQ7o1Z-89" value="Timezone" style="edgeLabel;html=1;align=center;verticalAlign=middle;resizable=0;points=[];" parent="yfvuUzmtMURHoeyQ7o1Z-54" vertex="1" connectable="0">
          <mxGeometry x="-0.1483" y="2" relative="1" as="geometry">
            <mxPoint x="9" as="offset" />
          </mxGeometry>
        </mxCell>
        <mxCell id="yfvuUzmtMURHoeyQ7o1Z-75" value="" style="edgeStyle=orthogonalEdgeStyle;rounded=0;orthogonalLoop=1;jettySize=auto;html=1;" parent="1" source="yfvuUzmtMURHoeyQ7o1Z-17" target="rEXQPaYoR8sOyzqgYeVf-2" edge="1">
          <mxGeometry relative="1" as="geometry">
            <Array as="points">
              <mxPoint x="-490" y="328" />
              <mxPoint x="-490" y="328" />
            </Array>
          </mxGeometry>
        </mxCell>
        <mxCell id="yfvuUzmtMURHoeyQ7o1Z-76" value="1 Record" style="edgeLabel;html=1;align=center;verticalAlign=middle;resizable=0;points=[];" parent="yfvuUzmtMURHoeyQ7o1Z-75" vertex="1" connectable="0">
          <mxGeometry x="-0.2437" y="1" relative="1" as="geometry">
            <mxPoint x="-8" y="-1" as="offset" />
          </mxGeometry>
        </mxCell>
        <mxCell id="yfvuUzmtMURHoeyQ7o1Z-17" value="ETL" style="aspect=fixed;html=1;points=[];align=center;image;fontSize=12;image=img/lib/azure2/general/Scheduler.svg;" parent="1" vertex="1">
          <mxGeometry x="-470" y="300" width="68" height="68" as="geometry" />
        </mxCell>
        <mxCell id="yfvuUzmtMURHoeyQ7o1Z-39" style="edgeStyle=orthogonalEdgeStyle;rounded=0;orthogonalLoop=1;jettySize=auto;html=1;" parent="1" source="rEXQPaYoR8sOyzqgYeVf-11" target="rEXQPaYoR8sOyzqgYeVf-34" edge="1">
          <mxGeometry relative="1" as="geometry">
            <Array as="points">
              <mxPoint x="-303" y="960" />
              <mxPoint x="-303" y="960" />
            </Array>
          </mxGeometry>
        </mxCell>
        <mxCell id="yfvuUzmtMURHoeyQ7o1Z-40" value="Token" style="edgeLabel;html=1;align=center;verticalAlign=middle;resizable=0;points=[];" parent="yfvuUzmtMURHoeyQ7o1Z-39" vertex="1" connectable="0">
          <mxGeometry x="0.2077" y="2" relative="1" as="geometry">
            <mxPoint x="-12" y="2" as="offset" />
          </mxGeometry>
        </mxCell>
        <mxCell id="rEXQPaYoR8sOyzqgYeVf-11" value="Azure AD b2c" style="aspect=fixed;html=1;points=[];align=center;image;fontSize=12;image=img/lib/azure2/identity/Azure_AD_B2C.svg;" parent="1" vertex="1">
          <mxGeometry x="-456.5" y="921.48" width="69" height="64" as="geometry" />
        </mxCell>
        <mxCell id="yfvuUzmtMURHoeyQ7o1Z-74" value="" style="edgeStyle=orthogonalEdgeStyle;rounded=0;orthogonalLoop=1;jettySize=auto;html=1;" parent="1" source="yfvuUzmtMURHoeyQ7o1Z-50" target="rEXQPaYoR8sOyzqgYeVf-1" edge="1">
          <mxGeometry relative="1" as="geometry" />
        </mxCell>
        <mxCell id="yfvuUzmtMURHoeyQ7o1Z-87" style="edgeStyle=orthogonalEdgeStyle;rounded=0;orthogonalLoop=1;jettySize=auto;html=1;" parent="1" source="yfvuUzmtMURHoeyQ7o1Z-50" target="yfvuUzmtMURHoeyQ7o1Z-82" edge="1">
          <mxGeometry relative="1" as="geometry" />
        </mxCell>
        <mxCell id="yfvuUzmtMURHoeyQ7o1Z-50" value="VdsProxyUploadFunction" style="aspect=fixed;html=1;points=[];align=center;image;fontSize=12;image=img/lib/azure2/general/Code.svg;" parent="1" vertex="1">
          <mxGeometry x="-680" y="410" width="64" height="52" as="geometry" />
        </mxCell>
        <mxCell id="yfvuUzmtMURHoeyQ7o1Z-77" value="" style="edgeStyle=orthogonalEdgeStyle;rounded=0;orthogonalLoop=1;jettySize=auto;html=1;" parent="1" source="yfvuUzmtMURHoeyQ7o1Z-58" target="rEXQPaYoR8sOyzqgYeVf-26" edge="1">
          <mxGeometry relative="1" as="geometry" />
        </mxCell>
        <mxCell id="yfvuUzmtMURHoeyQ7o1Z-58" value="Machines" style="aspect=fixed;html=1;points=[];align=center;image;fontSize=12;image=img/lib/azure2/other/Fiji.svg;" parent="1" vertex="1">
          <mxGeometry x="-675" y="70" width="54" height="68" as="geometry" />
        </mxCell>
        <mxCell id="yfvuUzmtMURHoeyQ7o1Z-36" style="edgeStyle=orthogonalEdgeStyle;rounded=0;orthogonalLoop=1;jettySize=auto;html=1;jumpStyle=gap;" parent="1" source="rEXQPaYoR8sOyzqgYeVf-11" target="rEXQPaYoR8sOyzqgYeVf-35" edge="1">
          <mxGeometry relative="1" as="geometry">
            <Array as="points">
              <mxPoint x="-473" y="960" />
              <mxPoint x="-473" y="960" />
            </Array>
          </mxGeometry>
        </mxCell>
        <mxCell id="yfvuUzmtMURHoeyQ7o1Z-37" value="Token" style="edgeLabel;html=1;align=center;verticalAlign=middle;resizable=0;points=[];" parent="yfvuUzmtMURHoeyQ7o1Z-36" vertex="1" connectable="0">
          <mxGeometry x="-0.5885" y="4" relative="1" as="geometry">
            <mxPoint x="-15" y="-4" as="offset" />
          </mxGeometry>
        </mxCell>
        <mxCell id="yfvuUzmtMURHoeyQ7o1Z-86" style="edgeStyle=orthogonalEdgeStyle;rounded=0;orthogonalLoop=1;jettySize=auto;html=1;entryX=0.297;entryY=0.029;entryDx=0;entryDy=0;entryPerimeter=0;" parent="1" source="yfvuUzmtMURHoeyQ7o1Z-82" target="rEXQPaYoR8sOyzqgYeVf-20" edge="1">
          <mxGeometry relative="1" as="geometry">
            <Array as="points">
              <mxPoint x="-610" y="620" />
              <mxPoint x="-590" y="620" />
            </Array>
          </mxGeometry>
        </mxCell>
        <mxCell id="yfvuUzmtMURHoeyQ7o1Z-82" value="Cosmos&lt;br&gt;(raw)" style="aspect=fixed;html=1;points=[];align=center;image;fontSize=12;image=img/lib/azure2/databases/Azure_Cosmos_DB.svg;" parent="1" vertex="1">
          <mxGeometry x="-642" y="511" width="64" height="64" as="geometry" />
        </mxCell>
      </root>
    </mxGraphModel>
  </diagram>
  <diagram id="NKOTy5Eq2u1QWri-RdDc" name="Page-2">
    <mxGraphModel dx="2022" dy="637" grid="1" gridSize="10" guides="1" tooltips="1" connect="1" arrows="1" fold="1" page="1" pageScale="1" pageWidth="827" pageHeight="1169" math="0" shadow="0">
      <root>
        <mxCell id="0" />
        <mxCell id="1" parent="0" />
        <mxCell id="FwNgBi1-4imY2R0FBXGB-1" value="" style="edgeStyle=orthogonalEdgeStyle;rounded=0;orthogonalLoop=1;jettySize=auto;html=1;startArrow=classic;startFill=1;" edge="1" parent="1" source="FwNgBi1-4imY2R0FBXGB-2" target="FwNgBi1-4imY2R0FBXGB-4">
          <mxGeometry relative="1" as="geometry" />
        </mxCell>
        <mxCell id="FwNgBi1-4imY2R0FBXGB-2" value="SPF API" style="aspect=fixed;html=1;points=[];align=center;image;fontSize=12;image=img/lib/azure2/general/Code.svg;" vertex="1" parent="1">
          <mxGeometry x="-608.25" y="680" width="64" height="52" as="geometry" />
        </mxCell>
        <mxCell id="FwNgBi1-4imY2R0FBXGB-3" value="" style="edgeStyle=orthogonalEdgeStyle;rounded=0;orthogonalLoop=1;jettySize=auto;html=1;startArrow=classic;startFill=1;" edge="1" parent="1" source="FwNgBi1-4imY2R0FBXGB-4" target="FwNgBi1-4imY2R0FBXGB-5">
          <mxGeometry relative="1" as="geometry" />
        </mxCell>
        <mxCell id="FwNgBi1-4imY2R0FBXGB-4" value="DFE platform API" style="aspect=fixed;html=1;points=[];align=center;image;fontSize=12;image=img/lib/azure2/general/Code.svg;" vertex="1" parent="1">
          <mxGeometry x="-609" y="810" width="64" height="52" as="geometry" />
        </mxCell>
        <mxCell id="FwNgBi1-4imY2R0FBXGB-5" value="Meggsius Connect" style="aspect=fixed;html=1;points=[];align=center;image;fontSize=12;image=img/lib/azure2/compute/Virtual_Machines_Classic.svg;" vertex="1" parent="1">
          <mxGeometry x="-609" y="940" width="62.5" height="57.97" as="geometry" />
        </mxCell>
        <mxCell id="ssgUv0o7W64r90_Dh632-2" style="edgeStyle=orthogonalEdgeStyle;rounded=0;orthogonalLoop=1;jettySize=auto;html=1;startArrow=classic;startFill=1;" edge="1" parent="1" source="ssgUv0o7W64r90_Dh632-1" target="FwNgBi1-4imY2R0FBXGB-2">
          <mxGeometry relative="1" as="geometry" />
        </mxCell>
        <mxCell id="ssgUv0o7W64r90_Dh632-1" value="Database" style="aspect=fixed;html=1;points=[];align=center;image;fontSize=12;image=img/lib/azure2/databases/SQL_Database.svg;" vertex="1" parent="1">
          <mxGeometry x="-601" y="540" width="48" height="64" as="geometry" />
        </mxCell>
      </root>
    </mxGraphModel>
  </diagram>
</mxfile>
